<?xml version="1.0" ?><svg xmlns="http://www.w3.org/2000/svg" width="24" height="24" viewBox="0 0 24 24" fill="none"><path fill-rule="evenodd" clip-rule="evenodd" d="M12 6C9.79086 6 8 7.79086 8 10L8.00006 10.0221L8.00489 10.9225L7.10993 11.0214C5.36098 11.2147 4 12.6991 4 14.5C4 16.433 5.567 18 7.5 18H16.5C18.433 18 20 16.433 20 14.5C20 12.6991 18.639 11.2147 16.8901 11.0214L15.9951 10.9225L15.9999 10.022L16 10C16 7.79086 14.2091 6 12 6ZM6.0539 9.1923C6.44838 6.26056 8.9602 4 12 4C15.0398 4 17.5516 6.26056 17.9461 9.19231C20.2824 9.82752 22 11.9626 22 14.5C22 17.5376 19.5376 20 16.5 20H7.5C4.46243 20 2 17.5376 2 14.5C2 11.9626 3.71755 9.82752 6.0539 9.1923Z" fill="#0D4DDF"/></svg>